<svg xmlns="http://www.w3.org/2000/svg" xmlns:xlink="http://www.w3.org/1999/xlink" width="177.496" height="47.799" viewBox="0 0 177.496 47.799">
  <defs>
    <clipPath id="clip-path">
      <rect id="Rectangle_26" data-name="Rectangle 26" width="38.486" height="44.758" fill="none"/>
    </clipPath>
  </defs>
  <g id="Group_424" data-name="Group 424" transform="translate(-38.504 -16.201)">
    <g id="Group_6" data-name="Group 6" transform="translate(38.504 16.201)">
      <path id="Path_2" data-name="Path 2" d="M30.574,117.716v1.167h2.871v17.047H30.574v1.279h10.31v-1.279H38.224V117.716Z" transform="translate(-24.052 -92.606)" fill="#1a1311"/>
      <g id="Group_5" data-name="Group 5">
        <g id="Group_4" data-name="Group 4" clip-path="url(#clip-path)">
          <path id="Path_3" data-name="Path 3" d="M108.429,99.759v1.279h-7.651v-1.56a6.525,6.525,0,0,1-4.541,1.715c-4.048,0-7.33-3.086-7.33-9.92s3.282-9.919,7.33-9.919a6.524,6.524,0,0,1,4.541,1.715V72.905H97.907V71.737h7.65V99.759ZM97.193,82.7c-2.657,0-3.637,3.83-3.637,8.556s.979,8.557,3.637,8.557,3.638-3.831,3.638-8.557-.98-8.556-3.638-8.556" transform="translate(-69.942 -56.435)" fill="#1a1311"/>
          <path id="Path_4" data-name="Path 4" d="M23.832,11.9a23.874,23.874,0,0,1-3.8,5.607A14.326,14.326,0,0,1,9.929,22.032,14.841,14.841,0,0,1,1.705,20.22,3.6,3.6,0,0,1,.063,18.5,1.645,1.645,0,0,1,.7,16.755c1.842-1.693,10.063-6.38,16.583-12.491,2.473-2.311,4.751-4.5,6.7-4.246,1.874.24,2.231,3.115,1.75,5.982a23.638,23.638,0,0,1-1.9,5.9m-5.67.826a1.107,1.107,0,0,0-.92-.775,4.542,4.542,0,0,0-1.894.263,16.288,16.288,0,0,0-2.453.98c-1.963.853-8.789,4.237-9.45,4.888-.555.537.049,1.275.6,1.554a6.883,6.883,0,0,0,2.051.714,12.936,12.936,0,0,0,2.951.177,13.3,13.3,0,0,0,3.011-.558A11.568,11.568,0,0,0,14.82,18.6a11.04,11.04,0,0,0,2.175-2.077,6.892,6.892,0,0,0,1.084-2.092,2.994,2.994,0,0,0,.084-1.706" transform="translate(0 0.001)" fill="#dc0017"/>
        </g>
      </g>
    </g>
    <text id="Department_of_Industrial_Design" data-name="Department of Industrial Design" transform="translate(86 33)" font-size="12" font-family="NotoSansCJKkr-DemiLight, Noto Sans CJK KR" font-weight="300"><tspan x="0" y="14">DEPARTMENT OF </tspan><tspan x="0" y="28">INDUSTRIAL DESIGN</tspan></text>
  </g>
</svg>
