<?xml version="1.0" encoding="utf-8"?>
<!-- Generator: Adobe Illustrator 26.1.0, SVG Export Plug-In . SVG Version: 6.00 Build 0)  -->
<svg version="1.1" id="Layer_1" xmlns="http://www.w3.org/2000/svg" xmlns:xlink="http://www.w3.org/1999/xlink" x="0px" y="0px"
	 viewBox="0 0 177.5 47.8" style="enable-background:new 0 0 177.5 47.8;" xml:space="preserve">
<style type="text/css">
	.st0{fill:#3C3C3C;}
	.st1{clip-path:url(#SVGID_00000104668969827828592060000012760158100010782355_);}
	.st2{fill:#FF0000;}
	.st3{enable-background:new    ;}
</style>
<g id="Group_424" transform="translate(-38.504 -16.201)">
	<g id="Group_6" transform="translate(38.504 16.201)">
		<path id="Path_2" class="st0" d="M6.5,25.1v1.2h2.9v17H6.5v1.3h10.3v-1.3h-2.7V25.1H6.5z"/>
		<g id="Group_5">
			<g>
				<g>
					<defs>
						<rect id="SVGID_1_" y="0" width="38.5" height="44.8"/>
					</defs>
					<clipPath id="SVGID_00000024712057984798691600000015556110625619009443_">
						<use xlink:href="#SVGID_1_"  style="overflow:visible;"/>
					</clipPath>
					<g id="Group_4" style="clip-path:url(#SVGID_00000024712057984798691600000015556110625619009443_);">
						<path id="Path_3" class="st0" d="M38.5,43.3v1.3h-7.7V43c-1.2,1.1-2.9,1.7-4.5,1.7c-4,0-7.3-3.1-7.3-9.9s3.3-9.9,7.3-9.9
							c1.7,0,3.3,0.6,4.5,1.7V16.5H28v-1.2h7.7v28H38.5z M27.3,26.3c-2.7,0-3.6,3.8-3.6,8.6s1,8.6,3.6,8.6s3.6-3.8,3.6-8.6
							S29.9,26.3,27.3,26.3"/>
						<path id="Path_4" class="st2" d="M23.8,11.9c-1,2-2.3,3.9-3.8,5.6c-2.6,2.8-6.3,4.4-10.1,4.5c-2.9,0.2-5.7-0.4-8.2-1.8
							c-0.7-0.4-1.3-1-1.6-1.7c-0.2-0.7,0.1-1.4,0.6-1.7c1.8-1.7,10.1-6.4,16.6-12.5C19.8,2,22-0.2,24,0c1.9,0.2,2.2,3.1,1.8,6
							C25.4,8,24.7,10,23.8,11.9 M18.2,12.7c-0.2-0.4-0.5-0.7-1-0.7c-0.6,0-1.3,0-1.9,0.3c-0.8,0.3-1.7,0.6-2.5,1
							c-2,0.9-8.8,4.2-9.4,4.9c-0.6,0.5,0,1.3,0.6,1.6c0.6,0.3,1.3,0.6,2.1,0.7c1,0.2,2,0.2,3,0.2c1-0.1,2-0.3,3-0.6
							c1-0.3,1.9-0.8,2.8-1.4c0.8-0.6,1.5-1.3,2.2-2.1c0.5-0.6,0.8-1.3,1.1-2.1C18.3,13.9,18.3,13.3,18.2,12.7"/>
					</g>
				</g>
			</g>
		</g>
	</g>
	<g class="st3">
		<path class="st0" d="M87.2,38.2h2.2c2.7,0,4.1,1.6,4.1,4.4c0,2.8-1.4,4.4-4.1,4.4h-2.2V38.2z M89.3,46.2c2.1,0,3.2-1.4,3.2-3.6
			c0-2.2-1-3.5-3.2-3.5h-1.1v7.1H89.3z"/>
		<path class="st0" d="M95.4,38.2h5V39h-4v3h3.4v0.8h-3.4v3.4h4.1V47h-5.1V38.2z"/>
		<path class="st0" d="M102.4,38.2h2.4c2,0,3.3,0.7,3.3,2.5s-1.3,2.7-3.2,2.7h-1.5V47h-1C102.4,47,102.4,38.2,102.4,38.2z
			 M104.8,42.6c1.6,0,2.4-0.6,2.4-1.9c0-1.3-0.8-1.7-2.4-1.7h-1.3v3.6C103.5,42.6,104.8,42.6,104.8,42.6z"/>
		<path class="st0" d="M111.1,38.2h1.1l3,8.8h-1.1l-0.9-2.8H110l-0.9,2.8h-1L111.1,38.2z M110.3,43.5h2.8l-0.5-1.4
			c-0.3-1-0.6-1.9-0.9-3l0,0c-0.3,1-0.6,2-0.9,3L110.3,43.5z"/>
		<path class="st0" d="M116.5,38.2h2.7c1.8,0,3,0.6,3,2.4c0,1.4-0.8,2.2-2,2.5l2.3,3.9h-1.1l-2.2-3.8h-1.6V47h-1v-8.8H116.5z
			 M119,42.4c1.4,0,2.2-0.6,2.2-1.7c0-1.2-0.8-1.6-2.2-1.6h-1.5v3.4h1.5V42.4z"/>
		<path class="st0" d="M125.7,39.1H123v-0.8h6.4v0.8h-2.7V47h-1V39.1z"/>
		<path class="st0" d="M131,38.2h1.2l1.7,4.8c0.2,0.6,0.4,1.2,0.6,1.9h0.1c0.2-0.6,0.4-1.2,0.6-1.9l1.7-4.8h1.2V47h-0.9v-5.1
			c0-0.7,0.1-1.8,0.1-2.5l0,0l-0.7,2l-1.7,4.7h-0.7l-1.7-4.7l-0.7-2l0,0c0,0.8,0.1,1.8,0.1,2.5V47H131V38.2z"/>
		<path class="st0" d="M140.6,38.2h5V39h-4v3h3.4v0.8h-3.4v3.4h4.1V47h-5.1V38.2z"/>
		<path class="st0" d="M147.6,38.2h1l3.3,5.7l0.9,1.8h0.1c-0.1-0.9-0.1-1.8-0.1-2.7v-4.8h0.9V47h-1l-3.3-5.7l-1-1.8h-0.1
			c0,0.9,0.1,1.8,0.1,2.7V47h-0.9v-8.8H147.6z"/>
		<path class="st0" d="M158.1,39.1h-2.7v-0.8h6.4v0.8h-2.7V47h-1V39.1z"/>
		<path class="st0" d="M165.5,42.6c0-2.8,1.5-4.5,3.7-4.5s3.7,1.7,3.7,4.5s-1.5,4.6-3.7,4.6C167,47.2,165.5,45.4,165.5,42.6z
			 M171.9,42.6c0-2.2-1.1-3.6-2.7-3.6c-1.6,0-2.7,1.4-2.7,3.6c0,2.3,1.1,3.7,2.7,3.7C170.8,46.3,171.9,44.8,171.9,42.6z"/>
		<path class="st0" d="M174.9,38.2h5V39h-4v3.1h3.4V43h-3.4v4h-1V38.2z"/>
	</g>
	<g class="st3">
		<path class="st0" d="M87.2,52.2h1V61h-1V52.2z"/>
		<path class="st0" d="M90.7,52.2h1l3.3,5.7l0.9,1.8H96c-0.1-0.9-0.1-1.8-0.1-2.7v-4.8h0.9V61h-1l-3.3-5.7l-1-1.8h-0.1
			c0,0.9,0.1,1.8,0.1,2.7V61h-0.9L90.7,52.2L90.7,52.2z"/>
		<path class="st0" d="M99.3,52.2h2.2c2.7,0,4.1,1.6,4.1,4.4c0,2.8-1.4,4.4-4.1,4.4h-2.2V52.2z M101.4,60.2c2.1,0,3.2-1.4,3.2-3.6
			c0-2.2-1-3.5-3.2-3.5h-1.1v7.1H101.4z"/>
		<path class="st0" d="M107.4,57.4v-5.2h1v5.2c0,2.2,0.9,2.8,2.1,2.8s2.2-0.7,2.2-2.8v-5.2h0.9v5.2c0,2.8-1.4,3.7-3.1,3.7
			S107.4,60.2,107.4,57.4z"/>
		<path class="st0" d="M115.3,59.8l0.6-0.7c0.6,0.7,1.5,1.1,2.5,1.1c1.2,0,1.9-0.6,1.9-1.5s-0.7-1.2-1.5-1.6l-1.3-0.6
			c-0.8-0.3-1.8-0.9-1.8-2.2s1.2-2.3,2.7-2.3c1.1,0,2,0.4,2.6,1.1l-0.5,0.6c-0.5-0.5-1.2-0.8-2-0.8c-1,0-1.7,0.5-1.7,1.3
			c0,0.9,0.8,1.2,1.5,1.5l1.3,0.5c1,0.4,1.8,1,1.8,2.4s-1.1,2.5-3,2.5C117.1,61.2,116,60.7,115.3,59.8z"/>
		<path class="st0" d="M124.6,53.1h-2.7v-0.8h6.4v0.8h-2.7V61h-1C124.6,61,124.6,53.1,124.6,53.1z"/>
		<path class="st0" d="M129.9,52.2h2.7c1.8,0,3,0.6,3,2.4c0,1.4-0.8,2.2-2,2.5l2.3,3.9h-1.1l-2.2-3.8H131V61h-1L129.9,52.2
			L129.9,52.2z M132.4,56.4c1.4,0,2.2-0.6,2.2-1.7c0-1.2-0.8-1.6-2.2-1.6h-1.5v3.4h1.5V56.4z"/>
		<path class="st0" d="M137.4,52.2h1V61h-1V52.2z"/>
		<path class="st0" d="M142.7,52.2h1.1l3,8.8h-1.1l-0.9-2.8h-3.3l-0.9,2.8h-1L142.7,52.2z M141.9,57.5h2.8l-0.5-1.4
			c-0.3-1-0.6-1.9-0.9-3l0,0c-0.3,1-0.6,2-0.9,3L141.9,57.5z"/>
		<path class="st0" d="M148.1,52.2h1v7.9h3.9V61h-4.9V52.2z"/>
		<path class="st0" d="M157.2,52.2h2.2c2.7,0,4.1,1.6,4.1,4.4c0,2.8-1.4,4.4-4.1,4.4h-2.2V52.2z M159.3,60.2c2.1,0,3.2-1.4,3.2-3.6
			c0-2.2-1-3.5-3.2-3.5h-1.1v7.1H159.3z"/>
		<path class="st0" d="M165.4,52.2h5V53h-4v3h3.4v0.8h-3.4v3.4h4.1V61h-5.1V52.2z"/>
		<path class="st0" d="M171.8,59.8l0.6-0.7c0.6,0.7,1.5,1.1,2.5,1.1c1.2,0,1.9-0.6,1.9-1.5s-0.7-1.2-1.5-1.6l-1.3-0.6
			c-0.8-0.3-1.8-0.9-1.8-2.2s1.2-2.3,2.7-2.3c1.1,0,2,0.4,2.6,1.1l-0.5,0.6c-0.5-0.5-1.2-0.8-2-0.8c-1,0-1.7,0.5-1.7,1.3
			c0,0.9,0.8,1.2,1.5,1.5l1.3,0.5c1,0.4,1.8,1,1.8,2.4s-1.1,2.5-3,2.5C173.5,61.2,172.5,60.7,171.8,59.8z"/>
		<path class="st0" d="M179.5,52.2h1V61h-1V52.2z"/>
		<path class="st0" d="M182.4,56.6c0-2.8,1.7-4.5,4-4.5c1.2,0,2,0.6,2.5,1.1l-0.6,0.6c-0.4-0.5-1-0.8-1.9-0.8c-1.8,0-3,1.4-3,3.6
			c0,2.3,1.1,3.7,3,3.7c0.7,0,1.3-0.2,1.7-0.6v-2.4h-1.9v-0.8h2.8v3.6c-0.6,0.6-1.5,1-2.7,1C184,61.2,182.4,59.5,182.4,56.6z"/>
		<path class="st0" d="M191.2,52.2h1l3.3,5.7l0.9,1.8h0.1c-0.1-0.9-0.1-1.8-0.1-2.7v-4.8h0.9V61h-1l-3.3-5.7l-1-1.8h0
			c0,0.9,0.1,1.8,0.1,2.7V61h-0.9L191.2,52.2L191.2,52.2z"/>
	</g>
</g>
</svg>
